<?xml version="1.0"?>
<!DOCTYPE svg PUBLIC "-//W3C//DTD SVG 1.1//EN" "http://www.w3.org/Graphics/SVG/1.1/DTD/svg11.dtd">
<svg xmlns="http://www.w3.org/2000/svg" xmlns:xl="http://www.w3.org/1999/xlink" version="1.1" viewBox="219 508 66 63" width="66pt" height="63pt"><metadata xmlns:dc="http://purl.org/dc/elements/1.1/"><dc:date>2010-02-19 18:51Z</dc:date><!-- Produced by OmniGraffle Professional 5.2.1 --></metadata><defs></defs><g stroke="none" stroke-opacity="1" stroke-dasharray="none" fill="none" fill-opacity="1"><title>Canvas 1</title><g><title>Layer 1</title><path d="M 239.45946 567.05646 C 228.25652 565.28235 220.60287 554.74823 222.37813 543.54523 C 223.9269 533.76056 232.16042 526.6833 241.68538 526.23145 C 244.55402 516.47522 254.29718 510.12253 264.60956 511.7542 C 275.81372 513.52832 283.46622 524.06128 281.69208 535.2655 C 280.14093 545.05127 271.9086 552.12866 262.3837 552.58038 C 259.51382 562.33667 249.77069 568.6894 239.45946 567.05646 Z" fill="#c1e6fd"/><path d="M 239.45946 567.05646 C 228.25652 565.28235 220.60287 554.74823 222.37813 543.54523 C 223.9269 533.76056 232.16042 526.6833 241.68538 526.23145 C 244.55402 516.47522 254.29718 510.12253 264.60956 511.7542 C 275.81372 513.52832 283.46622 524.06128 281.69208 535.2655 C 280.14093 545.05127 271.9086 552.12866 262.3837 552.58038 C 259.51382 562.33667 249.77069 568.6894 239.45946 567.05646 Z" stroke="#7aa3be" stroke-linecap="butt" stroke-linejoin="bevel" stroke-width="2.828427"/><path d="M 242.60826 554.5321 C 237.99757 554.5321 234.25496 550.78943 234.25496 546.17877 C 234.25496 541.5669 237.99757 537.82544 242.60826 537.82544 C 247.21895 537.82544 250.96161 541.5669 250.96161 546.17877 C 250.96161 550.78943 247.21895 554.5321 242.60826 554.5321 Z" fill="#f4c4e2"/><path d="M 242.60826 554.5321 C 237.99757 554.5321 234.25496 550.78943 234.25496 546.17877 C 234.25496 541.5669 237.99757 537.82544 242.60826 537.82544 C 247.21895 537.82544 250.96161 541.5669 250.96161 546.17877 C 250.96161 550.78943 247.21895 554.5321 242.60826 554.5321 Z" stroke="#ce81b0" stroke-linecap="butt" stroke-linejoin="bevel" stroke-width="2.828427"/><path d="M 261.32974 539.8224 C 256.71906 539.8224 252.97643 536.0797 252.97643 531.46906 C 252.97643 526.85724 256.71906 523.11572 261.32974 523.11572 C 265.9404 523.11572 269.68304 526.85724 269.68304 531.46906 C 269.68304 536.0797 265.9404 539.8224 261.32974 539.8224 Z" fill="#f4c4e2"/><path d="M 261.32974 539.8224 C 256.71906 539.8224 252.97643 536.0797 252.97643 531.46906 C 252.97643 526.85724 256.71906 523.11572 261.32974 523.11572 C 265.9404 523.11572 269.68304 526.85724 269.68304 531.46906 C 269.68304 536.0797 265.9404 539.8224 261.32974 539.8224 Z" stroke="#ce81b0" stroke-linecap="butt" stroke-linejoin="bevel" stroke-width="2.828427"/></g></g></svg>
