<?xml version="1.0"?>
<!DOCTYPE svg PUBLIC "-//W3C//DTD SVG 1.1//EN" "http://www.w3.org/Graphics/SVG/1.1/DTD/svg11.dtd">
<svg xmlns="http://www.w3.org/2000/svg" xmlns:xl="http://www.w3.org/1999/xlink" version="1.1" viewBox="10 517 51 49" width="51pt" height="49pt"><metadata xmlns:dc="http://purl.org/dc/elements/1.1/"><dc:date>2010-02-19 18:51Z</dc:date><!-- Produced by OmniGraffle Professional 5.2.1 --></metadata><defs></defs><g stroke="none" stroke-opacity="1" stroke-dasharray="none" fill="none" fill-opacity="1"><title>Canvas 1</title><g><title>Layer 1</title><path d="M 24.777889 524.46466 C 25.260532 521.4181 28.125618 519.33685 31.172129 519.81958 C 34.218643 520.3011 36.301048 523.16608 35.818394 526.2138 C 35.334553 529.26038 32.470665 531.3427 29.42415 530.86005 C 26.376442 530.37738 24.295235 527.5124 24.777889 524.46466 Z" fill="#c1e6fd"/><path d="M 24.777889 524.46466 C 25.260532 521.4181 28.125618 519.33685 31.172129 519.81958 C 34.218643 520.3011 36.301048 523.16608 35.818394 526.2138 C 35.334553 529.26038 32.470665 531.3427 29.42415 530.86005 C 26.376442 530.37738 24.295235 527.5124 24.777889 524.46466 Z" stroke="#7aa3be" stroke-linecap="butt" stroke-linejoin="bevel" stroke-width=".76791793"/><path d="M 30.279104 527.45233 C 29.025635 527.45233 28.008152 526.43475 28.008152 525.18018 C 28.008152 523.92664 29.025635 522.90802 30.279104 522.90802 C 31.533768 522.90802 32.55243 523.92664 32.55243 525.18018 C 32.55243 526.43475 31.533768 527.45233 30.279104 527.45233 Z" fill="#f4c4e2"/><path d="M 30.279104 527.45233 C 29.025635 527.45233 28.008152 526.43475 28.008152 525.18018 C 28.008152 523.92664 29.025635 522.90802 30.279104 522.90802 C 31.533768 522.90802 32.55243 523.92664 32.55243 525.18018 C 32.55243 526.43475 31.533768 527.45233 30.279104 527.45233 Z" stroke="#ce81b0" stroke-linecap="butt" stroke-linejoin="bevel" stroke-width=".76791793"/><path d="M 43.030827 528.7096 C 43.402 526.3581 45.613667 524.75238 47.964073 525.12476 C 50.316856 525.49707 51.922523 527.70758 51.55017 530.0592 C 51.177795 532.41077 48.96733 534.01642 46.61573 533.64404 C 44.26414 533.27173 42.657272 531.06122 43.030827 528.7096 Z" fill="#c1e6fd"/><path d="M 43.030827 528.7096 C 43.402 526.3581 45.613667 524.75238 47.964073 525.12476 C 50.316856 525.49707 51.922523 527.70758 51.55017 530.0592 C 51.177795 532.41077 48.96733 534.01642 46.61573 533.64404 C 44.26414 533.27173 42.657272 531.06122 43.030827 528.7096 Z" stroke="#7aa3be" stroke-linecap="butt" stroke-linejoin="bevel" stroke-width=".59255546"/><path d="M 47.276283 531.01703 C 46.30861 531.01703 45.52237 530.23083 45.52237 529.26312 C 45.52237 528.2954 46.30861 527.51044 47.276283 527.51044 C 48.243958 527.51044 49.029007 528.2954 49.029007 529.26312 C 49.029007 530.23083 48.243958 531.01703 47.276283 531.01703 Z" fill="#f4c4e2"/><path d="M 47.276283 531.01703 C 46.30861 531.01703 45.52237 530.23083 45.52237 529.26312 C 45.52237 528.2954 46.30861 527.51044 47.276283 527.51044 C 48.243958 527.51044 49.029007 528.2954 49.029007 529.26312 C 49.029007 530.23083 48.243958 531.01703 47.276283 531.01703 Z" stroke="#ce81b0" stroke-linecap="butt" stroke-linejoin="bevel" stroke-width=".59255546"/><path d="M 28.694836 539.2483 C 29.354185 535.08826 33.265205 532.2469 37.425255 532.9063 C 41.585312 533.5644 44.42667 537.4754 43.768497 541.6366 C 43.109165 545.7967 39.198143 548.63806 35.03809 547.9787 C 30.878038 547.3205 28.035486 543.40833 28.694836 539.2483 Z" fill="#c1e6fd"/><path d="M 28.694836 539.2483 C 29.354185 535.08826 33.265205 532.2469 37.425255 532.9063 C 41.585312 533.5644 44.42667 537.4754 43.768497 541.6366 C 43.109165 545.7967 39.198143 548.63806 35.03809 547.9787 C 30.878038 547.3205 28.035486 543.40833 28.694836 539.2483 Z" stroke="#7aa3be" stroke-linecap="butt" stroke-linejoin="bevel" stroke-width="1.04934645"/><path d="M 36.207306 543.32983 C 34.494907 543.32983 33.105053 541.94 33.105053 540.22766 C 33.105053 538.51526 34.494907 537.12537 36.207306 537.12537 C 37.918526 537.12537 39.308372 538.51526 39.308372 540.22766 C 39.308372 541.94 37.918526 543.32983 36.207306 543.32983 Z" fill="#f4c4e2"/><path d="M 36.207306 543.32983 C 34.494907 543.32983 33.105053 541.94 33.105053 540.22766 C 33.105053 538.51526 34.494907 537.12537 36.207306 537.12537 C 37.918526 537.12537 39.308372 538.51526 39.308372 540.22766 C 39.308372 541.94 37.918526 543.32983 36.207306 543.32983 Z" stroke="#ce81b0" stroke-linecap="butt" stroke-linejoin="bevel" stroke-width="1.04934645"/><path d="M 45.867424 545.65247 C 46.416496 542.18738 49.6741 539.82147 53.138058 540.3694 C 56.603203 540.91846 58.969025 544.17596 58.42115 547.63995 C 57.872093 551.10504 54.61448 553.4709 51.150524 552.92303 C 47.685387 552.37396 45.31955 549.11633 45.867424 545.65247 Z" fill="#c1e6fd"/><path d="M 45.867424 545.65247 C 46.416496 542.18738 49.6741 539.82147 53.138058 540.3694 C 56.603203 540.91846 58.969025 544.17596 58.42115 547.63995 C 57.872093 551.10504 54.61448 553.4709 51.150524 552.92303 C 47.685387 552.37396 45.31955 549.11633 45.867424 545.65247 Z" stroke="#7aa3be" stroke-linecap="butt" stroke-linejoin="bevel" stroke-width=".873984"/><path d="M 52.124134 549.0506 C 50.698708 549.0506 49.540112 547.89325 49.540112 546.4666 C 49.540112 545.04108 50.698708 543.88373 52.124134 543.88373 C 53.549557 543.88373 54.706974 545.04108 54.706974 546.4666 C 54.706974 547.89325 53.549557 549.0506 52.124134 549.0506 Z" fill="#f4c4e2"/><path d="M 52.124134 549.0506 C 50.698708 549.0506 49.540112 547.89325 49.540112 546.4666 C 49.540112 545.04108 50.698708 543.88373 52.124134 543.88373 C 53.549557 543.88373 54.706974 545.04108 54.706974 546.4666 C 54.706974 547.89325 53.549557 549.0506 52.124134 549.0506 Z" stroke="#ce81b0" stroke-linecap="butt" stroke-linejoin="bevel" stroke-width=".873984"/><path d="M 19.259956 550.90753 C 19.588444 548.83466 21.538025 547.41864 23.610939 547.7472 C 25.683844 548.07568 27.099781 550.02405 26.771294 552.097 C 26.442806 554.1698 24.494411 555.58704 22.421503 555.2585 C 20.348593 554.93005 18.931469 552.98047 19.259956 550.90753 Z" fill="#c1e6fd"/><path d="M 19.259956 550.90753 C 19.588444 548.83466 21.538025 547.41864 23.610939 547.7472 C 25.683844 548.07568 27.099781 550.02405 26.771294 552.097 C 26.442806 554.1698 24.494411 555.58704 22.421503 555.2585 C 20.348593 554.93005 18.931469 552.98047 19.259956 550.90753 Z" stroke="#7aa3be" stroke-linecap="butt" stroke-linejoin="bevel" stroke-width=".5218448"/><path d="M 23.00376 552.9416 C 22.151114 552.9416 21.457376 552.2478 21.457376 551.39514 C 21.457376 550.54132 22.151114 549.84998 23.00376 549.84998 C 23.856401 549.84998 24.548956 550.54132 24.548956 551.39514 C 24.548956 552.2478 23.856401 552.9416 23.00376 552.9416 Z" fill="#f4c4e2"/><path d="M 23.00376 552.9416 C 22.151114 552.9416 21.457376 552.2478 21.457376 551.39514 C 21.457376 550.54132 22.151114 549.84998 23.00376 549.84998 C 23.856401 549.84998 24.548956 550.54132 24.548956 551.39514 C 24.548956 552.2478 23.856401 552.9416 23.00376 552.9416 Z" stroke="#ce81b0" stroke-linecap="butt" stroke-linejoin="bevel" stroke-width=".5218448"/><path d="M 12.927379 538.17993 C 13.43256 534.99353 16.428083 532.81744 19.614532 533.32147 C 22.800976 533.8266 24.97707 536.82214 24.473068 540.00854 C 23.967876 543.19507 20.972353 545.3711 17.785912 544.86707 C 14.599461 544.362 12.423378 541.36646 12.927379 538.17993 Z" fill="#c1e6fd"/><path d="M 12.927379 538.17993 C 13.43256 534.99353 16.428083 532.81744 19.614532 533.32147 C 22.800976 533.8266 24.97707 536.82214 24.473068 540.00854 C 23.967876 543.19507 20.972353 545.3711 17.785912 544.86707 C 14.599461 544.362 12.423378 541.36646 12.927379 538.17993 Z" stroke="#7aa3be" stroke-linecap="butt" stroke-linejoin="bevel" stroke-width=".8032733"/><path d="M 18.681255 541.3045 C 17.369673 541.3045 16.305943 540.24072 16.305943 538.92926 C 16.305943 537.61652 17.369673 536.55267 18.681255 536.55267 C 19.992838 536.55267 21.057751 537.61652 21.057751 538.92926 C 21.057751 540.24072 19.992838 541.3045 18.681255 541.3045 Z" fill="#f4c4e2"/><path d="M 18.681255 541.3045 C 17.369673 541.3045 16.305943 540.24072 16.305943 538.92926 C 16.305943 537.61652 17.369673 536.55267 18.681255 536.55267 C 19.992838 536.55267 21.057751 537.61652 21.057751 538.92926 C 21.057751 540.24072 19.992838 541.3045 18.681255 541.3045 Z" stroke="#ce81b0" stroke-linecap="butt" stroke-linejoin="bevel" stroke-width=".8032733"/><path d="M 30.72855 556.5207 C 31.232546 553.33423 34.229256 551.15808 37.41452 551.66217 C 40.600975 552.16736 42.777054 555.16284 42.273048 558.3493 C 41.767868 561.5346 38.772354 563.71057 35.5859 563.2066 C 32.40063 562.70264 30.223373 559.70715 30.72855 556.5207 Z" fill="#c1e6fd"/><path d="M 30.72855 556.5207 C 31.232546 553.33423 34.229256 551.15808 37.41452 551.66217 C 40.600975 552.16736 42.777054 555.16284 42.273048 558.3493 C 41.767868 561.5346 38.772354 563.71057 35.5859 563.2066 C 32.40063 562.70264 30.223373 559.70715 30.72855 556.5207 Z" stroke="#7aa3be" stroke-linecap="butt" stroke-linejoin="bevel" stroke-width=".8032733"/><path d="M 36.48246 559.64526 C 35.170876 559.64526 34.105957 558.58032 34.105957 557.26874 C 34.105957 555.95728 35.170876 554.89343 36.48246 554.89343 C 37.79285 554.89343 38.857765 555.95728 38.857765 557.26874 C 38.857765 558.58032 37.79285 559.64526 36.48246 559.64526 Z" fill="#f4c4e2"/><path d="M 36.48246 559.64526 C 35.170876 559.64526 34.105957 558.58032 34.105957 557.26874 C 34.105957 555.95728 35.170876 554.89343 36.48246 554.89343 C 37.79285 554.89343 38.857765 555.95728 38.857765 557.26874 C 38.857765 558.58032 37.79285 559.64526 36.48246 559.64526 Z" stroke="#ce81b0" stroke-linecap="butt" stroke-linejoin="bevel" stroke-width=".8032733"/></g></g></svg>
