<?xml version="1.0"?>
<!DOCTYPE svg PUBLIC "-//W3C//DTD SVG 1.1//EN" "http://www.w3.org/Graphics/SVG/1.1/DTD/svg11.dtd">
<svg xmlns="http://www.w3.org/2000/svg" xmlns:xl="http://www.w3.org/1999/xlink" version="1.1" viewBox="300 515 48 48" width="4pc" height="4pc"><metadata xmlns:dc="http://purl.org/dc/elements/1.1/"><dc:date>2010-02-19 18:51Z</dc:date><!-- Produced by OmniGraffle Professional 5.2.1 --></metadata><defs></defs><g stroke="none" stroke-opacity="1" stroke-dasharray="none" fill="none" fill-opacity="1"><title>Canvas 1</title><g><title>Layer 1</title><path d="M 303.65967 535.48822 C 305.43372 524.28522 315.96667 516.6328 327.16965 518.40686 C 338.3738 520.18085 346.02625 530.71387 344.2522 541.91803 C 342.4769 553.12103 331.944 560.77344 320.741 558.9994 C 309.53806 557.2254 301.88443 546.69122 303.65967 535.48822 Z" fill="#c1e6fd"/><path d="M 303.65967 535.48822 C 305.43372 524.28522 315.96667 516.6328 327.16965 518.40686 C 338.3738 520.18085 346.02625 530.71387 344.2522 541.91803 C 342.4769 553.12103 331.944 560.77344 320.741 558.9994 C 309.53806 557.2254 301.88443 546.69122 303.65967 535.48822 Z" stroke="#7aa3be" stroke-linecap="butt" stroke-linejoin="bevel" stroke-width="2.828427"/><path d="M 323.9563 547.05597 C 319.34561 547.05597 315.60294 543.31335 315.60294 538.70264 C 315.60294 534.09082 319.34561 530.3493 323.9563 530.3493 C 328.56699 530.3493 332.30957 534.09082 332.30957 538.70264 C 332.30957 543.31335 328.56699 547.05597 323.9563 547.05597 Z" fill="#f4c4e2"/><path d="M 323.9563 547.05597 C 319.34561 547.05597 315.60294 543.31335 315.60294 538.70264 C 315.60294 534.09082 319.34561 530.3493 323.9563 530.3493 C 328.56699 530.3493 332.30957 534.09082 332.30957 538.70264 C 332.30957 543.31335 328.56699 547.05597 323.9563 547.05597 Z" stroke="#ce81b0" stroke-linecap="butt" stroke-linejoin="bevel" stroke-width="2.828427"/><line x1="305.98312" y1="520.55048" x2="341.92822" y2="556.85376" stroke="#2f4c60" stroke-linecap="butt" stroke-linejoin="bevel" stroke-width="2.3772931"/><line x1="305.80405" y1="556.67578" x2="342.1073" y2="520.7295" stroke="#2f4c60" stroke-linecap="butt" stroke-linejoin="bevel" stroke-width="2.3772931"/></g></g></svg>
