<?xml version="1.0"?>
<!DOCTYPE svg PUBLIC "-//W3C//DTD SVG 1.1//EN" "http://www.w3.org/Graphics/SVG/1.1/DTD/svg11.dtd">
<svg xmlns="http://www.w3.org/2000/svg" xmlns:xl="http://www.w3.org/1999/xlink" version="1.1" viewBox="370 514 53 50" width="53pt" height="50pt"><metadata xmlns:dc="http://purl.org/dc/elements/1.1/"><dc:date>2010-02-19 18:51Z</dc:date><!-- Produced by OmniGraffle Professional 5.2.1 --></metadata><defs></defs><g stroke="none" stroke-opacity="1" stroke-dasharray="none" fill="none" fill-opacity="1"><title>Canvas 1</title><g><title>Layer 1</title><path d="M 374.32574 535.96063 C 376.0998 524.75775 386.63275 517.10522 397.83572 518.87933 C 409.03989 520.65338 416.69232 531.18628 414.91827 542.39044 C 413.143 553.59344 402.61008 561.24585 391.4071 559.47186 C 380.20413 557.69775 372.5505 547.16357 374.32574 535.96063 Z" fill="#c1e6fd"/><path d="M 374.32574 535.96063 C 376.0998 524.75775 386.63275 517.10522 397.83572 518.87933 C 409.03989 520.65338 416.69232 531.18628 414.91827 542.39044 C 413.143 553.59344 402.61008 561.24585 391.4071 559.47186 C 380.20413 557.69775 372.5505 547.16357 374.32574 535.96063 Z" stroke="#7aa3be" stroke-linecap="butt" stroke-linejoin="bevel" stroke-width="2.828427"/><path d="M 394.55588 546.9472 C 389.9452 546.9472 386.20255 543.20453 386.20255 538.59387 C 386.20255 533.982 389.9452 530.24054 394.55588 530.24054 C 399.16656 530.24054 402.90918 533.982 402.90918 538.59387 C 402.90918 543.20453 399.16656 546.9472 394.55588 546.9472 Z" fill="#f4c4e2"/><path d="M 394.55588 546.9472 C 389.9452 546.9472 386.20255 543.20453 386.20255 538.59387 C 386.20255 533.982 389.9452 530.24054 394.55588 530.24054 C 399.16656 530.24054 402.90918 533.982 402.90918 538.59387 C 402.90918 543.20453 399.16656 546.9472 394.55588 546.9472 Z" stroke="#ce81b0" stroke-linecap="butt" stroke-linejoin="bevel" stroke-width="2.828427"/><path d="M 401.0521 529.5016 L 393.82657 524.08325 L 395.87695 522.90216 L 395.79156 522.75513 C 393.88586 519.57343 392.38217 518.02942 391.0919 517.33325 C 389.80646 516.63953 388.56598 516.70007 386.87967 517.1673 C 383.45963 518.1136 378.60703 520.71417 370.66757 519.08008 L 371.14545 516.75696 C 378.36038 518.24286 382.42197 515.93988 386.24643 514.88086 C 388.1806 514.34607 390.14557 514.12787 392.21732 515.245 C 393.94986 516.1806 395.61484 517.97723 397.43988 520.90643 L 397.9285 521.7223 L 399.9931 520.53278 L 401.0521 529.5016 Z" fill="#2f4c60"/><path d="M 389.11264 554.9378 L 388.42844 553.75195 L 386.30688 554.8642 L 385.60016 545.86096 L 392.60748 551.55798 L 390.52747 552.65027 L 391.0943 553.63214 C 400.42358 568.3797 422.15353 561.18494 420.53958 543.43237 L 422.90063 543.21765 C 424.73996 563.45715 399.73456 571.6942 389.11264 554.9378 Z" fill="#2f4c60"/></g></g></svg>
