<?xml version="1.0"?>
<!DOCTYPE svg PUBLIC "-//W3C//DTD SVG 1.1//EN" "http://www.w3.org/Graphics/SVG/1.1/DTD/svg11.dtd">
<svg xmlns="http://www.w3.org/2000/svg" xmlns:xl="http://www.w3.org/1999/xlink" version="1.1" viewBox="148 508 62 62" width="62pt" height="62pt"><metadata xmlns:dc="http://purl.org/dc/elements/1.1/"><dc:date>2010-02-19 18:51Z</dc:date><!-- Produced by OmniGraffle Professional 5.2.1 --></metadata><defs></defs><g stroke="none" stroke-opacity="1" stroke-dasharray="none" fill="none" fill-opacity="1"><title>Canvas 1</title><g><title>Layer 1</title><path d="M 151.6983 542.7249 C 153.47238 531.5219 164.00531 523.86823 175.20827 525.64227 C 186.4124 527.41754 194.06488 537.9505 192.2908 549.15344 C 190.51556 560.35767 179.98264 568.0102 168.77965 566.23492 C 157.5755 564.46088 149.923065 553.92786 151.6983 542.7249 Z" fill="#c1e6fd"/><path d="M 151.6983 542.7249 C 153.47238 531.5219 164.00531 523.86823 175.20827 525.64227 C 186.4124 527.41754 194.06488 537.9505 192.2908 549.15344 C 190.51556 560.35767 179.98264 568.0102 168.77965 566.23492 C 157.5755 564.46088 149.923065 553.92786 151.6983 542.7249 Z" stroke="#7aa3be" stroke-linecap="butt" stroke-linejoin="bevel" stroke-width="2.828427"/><path d="M 171.92848 553.7115 C 167.31778 553.7115 163.57516 549.96887 163.57516 545.3582 C 163.57516 540.7475 167.31778 537.00604 171.92848 537.00604 C 176.53915 537.00604 180.28061 540.7475 180.28061 545.3582 C 180.28061 549.96887 176.53915 553.7115 171.92848 553.7115 Z" fill="#f4c4e2"/><path d="M 171.92848 553.7115 C 167.31778 553.7115 163.57516 549.96887 163.57516 545.3582 C 163.57516 540.7475 167.31778 537.00604 171.92848 537.00604 C 176.53915 537.00604 180.28061 540.7475 180.28061 545.3582 C 180.28061 549.96887 176.53915 553.7115 171.92848 553.7115 Z" stroke="#ce81b0" stroke-linecap="butt" stroke-linejoin="bevel" stroke-width="2.828427"/><path d="M 187.4931 542.15155 L 187.4931 531.2107 L 176.55103 531.2107 L 176.55103 522.8158 L 187.4931 522.8158 L 187.4931 511.87494 L 195.88794 511.87494 L 195.88794 522.8158 L 206.82645 522.8158 L 206.82645 531.2107 L 195.88794 531.2107 L 195.88794 542.15155 L 187.4931 542.15155 Z" fill="#fffbc4"/><path d="M 187.4931 542.15155 L 187.4931 531.2107 L 176.55103 531.2107 L 176.55103 522.8158 L 187.4931 522.8158 L 187.4931 511.87494 L 195.88794 511.87494 L 195.88794 522.8158 L 206.82645 522.8158 L 206.82645 531.2107 L 195.88794 531.2107 L 195.88794 542.15155 L 187.4931 542.15155 Z" stroke="#cdc57f" stroke-linecap="butt" stroke-linejoin="miter" stroke-width="2.828427"/></g></g></svg>
