<?xml version="1.0"?>
<!DOCTYPE svg PUBLIC "-//W3C//DTD SVG 1.1//EN" "http://www.w3.org/Graphics/SVG/1.1/DTD/svg11.dtd">
<svg xmlns="http://www.w3.org/2000/svg" xmlns:xl="http://www.w3.org/1999/xlink" version="1.1" viewBox="437 507 66 68" width="66pt" height="68pt"><metadata xmlns:dc="http://purl.org/dc/elements/1.1/"><dc:date>2010-02-19 18:51Z</dc:date><!-- Produced by OmniGraffle Professional 5.2.1 --></metadata><defs></defs><g stroke="none" stroke-opacity="1" stroke-dasharray="none" fill="none" fill-opacity="1"><title>Canvas 1</title><g><title>Layer 1</title><path d="M 441.09567 539.11847 C 442.86972 527.91547 453.40262 520.26312 464.60562 522.0371 C 475.80981 523.8111 483.46225 534.34418 481.6882 545.54828 C 479.91296 556.75122 469.37994 564.40363 458.177 562.62958 C 446.97406 560.8556 439.32037 550.3214 441.09567 539.11847 Z" fill="#c1e6fd"/><path d="M 441.09567 539.11847 C 442.86972 527.91547 453.40262 520.26312 464.60562 522.0371 C 475.80981 523.8111 483.46225 534.34418 481.6882 545.54828 C 479.91296 556.75122 469.37994 564.40363 458.177 562.62958 C 446.97406 560.8556 439.32037 550.3214 441.09567 539.11847 Z" stroke="#7aa3be" stroke-linecap="butt" stroke-linejoin="bevel" stroke-width="2.828427"/><path d="M 461.32584 550.10522 C 456.71515 550.10522 452.97253 546.36255 452.97253 541.7519 C 452.97253 537.13995 456.71515 533.39856 461.32584 533.39856 C 465.93652 533.39856 469.67914 537.13995 469.67914 541.7519 C 469.67914 546.36255 465.93652 550.10522 461.32584 550.10522 Z" fill="#f4c4e2"/><path d="M 461.32584 550.10522 C 456.71515 550.10522 452.97253 546.36255 452.97253 541.7519 C 452.97253 537.13995 456.71515 533.39856 461.32584 533.39856 C 465.93652 533.39856 469.67914 537.13995 469.67914 541.7519 C 469.67914 546.36255 465.93652 550.10522 461.32584 550.10522 Z" stroke="#ce81b0" stroke-linecap="butt" stroke-linejoin="bevel" stroke-width="2.828427"/><path d="M 481.2047 511.53223 C 485.75253 511.53223 489.43945 515.21918 489.43945 519.76703 C 489.43945 524.3161 485.75253 528.00183 481.2047 528.00183 C 476.65567 528.00183 472.96997 524.3161 472.96997 519.76703 C 472.96997 515.21918 476.65567 511.53223 481.2047 511.53223 Z" stroke="#2f4c60" stroke-linecap="butt" stroke-linejoin="bevel" stroke-width="4.1549592"/><path d="M 481.27594 528.0775 L 481.27594 552.78052 L 464.80524 569.24994" stroke="#2f4c60" stroke-linecap="butt" stroke-linejoin="bevel" stroke-width="4.1549592"/><path d="M 464.8551 544.59924 L 481.32806 528.12866 L 497.79755 544.59924" stroke="#2f4c60" stroke-linecap="butt" stroke-linejoin="bevel" stroke-width="4.1549592"/><line x1="481.328" y1="552.73077" x2="497.79742" y2="569.2013" stroke="#2f4c60" stroke-linecap="butt" stroke-linejoin="bevel" stroke-width="4.1549592"/></g></g></svg>
