<?xml version="1.0"?>
<!DOCTYPE svg PUBLIC "-//W3C//DTD SVG 1.1//EN" "http://www.w3.org/Graphics/SVG/1.1/DTD/svg11.dtd">
<svg xmlns="http://www.w3.org/2000/svg" xmlns:xl="http://www.w3.org/1999/xlink" version="1.1" viewBox="83 516 48 48" width="4pc" height="4pc"><metadata xmlns:dc="http://purl.org/dc/elements/1.1/"><dc:date>2010-02-19 18:51Z</dc:date><!-- Produced by OmniGraffle Professional 5.2.1 --></metadata><defs></defs><g stroke="none" stroke-opacity="1" stroke-dasharray="none" fill="none" fill-opacity="1"><title>Canvas 1</title><g><title>Layer 1</title><path d="M 86.77285 536.412 C 88.54689 525.2091 99.07985 517.55664 110.282845 519.3307 C 121.486984 521.10468 129.139465 531.6377 127.36538 542.8418 C 125.59014 554.0448 115.05718 561.69727 103.85421 559.92316 C 92.651245 558.14917 84.997574 547.61505 86.77285 536.412 Z" fill="#c1e6fd"/><path d="M 86.77285 536.412 C 88.54689 525.2091 99.07985 517.55664 110.282845 519.3307 C 121.486984 521.10468 129.139465 531.6377 127.36538 542.8418 C 125.59014 554.0448 115.05718 561.69727 103.85421 559.92316 C 92.651245 558.14917 84.997574 547.61505 86.77285 536.412 Z" stroke="#7aa3be" stroke-linecap="butt" stroke-linejoin="bevel" stroke-width="2.828427"/><path d="M 107.00268 547.39862 C 102.39199 547.39862 98.64937 543.65594 98.64937 539.0453 C 98.64937 534.4334 102.39199 530.69196 107.00268 530.69196 C 111.613365 530.69196 115.356 534.4334 115.356 539.0453 C 115.356 543.65594 111.613365 547.39862 107.00268 547.39862 Z" fill="#f4c4e2"/><path d="M 107.00268 547.39862 C 102.39199 547.39862 98.64937 543.65594 98.64937 539.0453 C 98.64937 534.4334 102.39199 530.69196 107.00268 530.69196 C 111.613365 530.69196 115.356 534.4334 115.356 539.0453 C 115.356 543.65594 111.613365 547.39862 107.00268 547.39862 Z" stroke="#ce81b0" stroke-linecap="butt" stroke-linejoin="bevel" stroke-width="2.828427"/></g></g></svg>
